<svg width="42" height="42" viewBox="0 0 42 42" fill="none" xmlns="http://www.w3.org/2000/svg">
<path d="M16.9389 7.3807C18.4595 4.33968 22.7991 4.33969 24.3197 7.38071L38.2735 35.2883C39.6451 38.0317 37.6503 41.2594 34.5831 41.2594H6.6755C3.60835 41.2594 1.61346 38.0317 2.98513 35.2883L16.9389 7.3807Z" fill="url(#paint0_linear_5_437)"/>
<path d="M23.7116 15.4741L23.224 28.6771H18.948L18.4604 15.4741H23.7116ZM21.086 34.9785C20.3608 34.9785 19.7388 34.7254 19.22 34.219C18.7073 33.7064 18.4542 33.0844 18.4604 32.3529C18.4542 31.6403 18.7073 31.0308 19.22 30.5244C19.7388 30.018 20.3608 29.7648 21.086 29.7648C21.7737 29.7648 22.3801 30.018 22.9052 30.5244C23.4365 31.0308 23.7054 31.6403 23.7116 32.3529C23.7054 32.8405 23.5772 33.2844 23.3271 33.6845C23.0833 34.0783 22.7645 34.394 22.3707 34.6316C21.9768 34.8629 21.5486 34.9785 21.086 34.9785Z" fill="white"/>
<defs>
<linearGradient id="paint0_linear_5_437" x1="20.6293" y1="0" x2="20.6293" y2="41.2594" gradientUnits="userSpaceOnUse">
<stop stop-color="#FF006F"/>
<stop offset="1" stop-color="#B700FF"/>
</linearGradient>
</defs>
</svg>
