<svg width="71" height="71" viewBox="0 0 71 71" fill="none" xmlns="http://www.w3.org/2000/svg">
<circle cx="35.35" cy="35.35" r="35" fill="#2C2C2C" stroke="white" stroke-width="0.7"/>
<g filter="url(#filter0_i_32_6)">
<path d="M20.275 24.4071V46.35H15.6357V28.8107H15.5071L10.4821 31.9607V27.8464L15.9142 24.4071H20.275ZM26.1171 46.6285C25.41 46.6285 24.8028 46.3785 24.2957 45.8785C23.7957 45.3714 23.5457 44.7643 23.5457 44.0571C23.5457 43.3571 23.7957 42.7571 24.2957 42.2571C24.8028 41.7571 25.41 41.5071 26.1171 41.5071C26.8028 41.5071 27.4028 41.7571 27.9171 42.2571C28.4314 42.7571 28.6886 43.3571 28.6886 44.0571C28.6886 44.5285 28.5671 44.9607 28.3243 45.3535C28.0886 45.7393 27.7778 46.05 27.3921 46.2857C27.0064 46.5143 26.5814 46.6285 26.1171 46.6285ZM38.2941 24.4071V46.35H33.6548V28.8107H33.5263L28.5013 31.9607V27.8464L33.9334 24.4071H38.2941ZM51.2077 46.8321C49.3649 46.825 47.7792 46.3714 46.4506 45.4714C45.1292 44.5714 44.1113 43.2678 43.397 41.5607C42.6899 39.8535 42.3399 37.8 42.347 35.4C42.347 33.0071 42.7006 30.9678 43.4077 29.2821C44.122 27.5964 45.1399 26.3143 46.4613 25.4357C47.7899 24.55 49.372 24.1071 51.2077 24.1071C53.0435 24.1071 54.622 24.55 55.9435 25.4357C57.272 26.3214 58.2935 27.6071 59.0077 29.2928C59.722 30.9714 60.0756 33.0071 60.0685 35.4C60.0685 37.8071 59.7113 39.8643 58.997 41.5714C58.2899 43.2785 57.2756 44.5821 55.9542 45.4821C54.6327 46.3821 53.0506 46.8321 51.2077 46.8321ZM51.2077 42.9857C52.4649 42.9857 53.4685 42.3535 54.2185 41.0893C54.9685 39.825 55.3399 37.9285 55.3327 35.4C55.3327 33.7357 55.1613 32.35 54.8185 31.2428C54.4827 30.1357 54.0042 29.3035 53.3827 28.7464C52.7685 28.1893 52.0435 27.9107 51.2077 27.9107C49.9577 27.9107 48.9577 28.5357 48.2077 29.7857C47.4577 31.0357 47.0792 32.9071 47.072 35.4C47.072 37.0857 47.2399 38.4928 47.5756 39.6214C47.9185 40.7428 48.4006 41.5857 49.022 42.15C49.6435 42.7071 50.372 42.9857 51.2077 42.9857Z" fill="url(#paint0_linear_32_6)"/>
</g>
<defs>
<filter id="filter0_i_32_6" x="10.4821" y="24.1071" width="49.5972" height="22.725" filterUnits="userSpaceOnUse" color-interpolation-filters="sRGB">
<feFlood flood-opacity="0" result="BackgroundImageFix"/>
<feBlend mode="normal" in="SourceGraphic" in2="BackgroundImageFix" result="shape"/>
<feColorMatrix in="SourceAlpha" type="matrix" values="0 0 0 0 0 0 0 0 0 0 0 0 0 0 0 0 0 0 127 0" result="hardAlpha"/>
<feOffset/>
<feGaussianBlur stdDeviation="0.628571"/>
<feComposite in2="hardAlpha" operator="arithmetic" k2="-1" k3="1"/>
<feColorMatrix type="matrix" values="0 0 0 0 0 0 0 0 0 0 0 0 0 0 0 0 0 0 0.25 0"/>
<feBlend mode="normal" in2="shape" result="effect1_innerShadow_32_6"/>
</filter>
<linearGradient id="paint0_linear_32_6" x1="8.94995" y1="35.35" x2="61.95" y2="35.35" gradientUnits="userSpaceOnUse">
<stop stop-color="#B700FF"/>
<stop offset="1" stop-color="#FF006F"/>
</linearGradient>
</defs>
</svg>
